# Blender v2.80 (sub 75) OBJ File: 'enemy_break.blend'
# www.blender.org
mtllib enemy_break.mtl
o Plane.008
v 0.453034 -1.452022 -2.572458
v 1.383043 -2.035031 -2.361003
v 1.534195 -0.908531 -1.720481
v 3.071993 -2.170047 -0.591895
v 1.280177 -2.284224 -0.266944
v 2.103998 -2.708827 -1.840410
v 0.200524 0.392981 0.890491
v 0.618293 0.275660 0.483020
v 0.013845 0.213110 0.146275
v 0.751403 0.356718 -0.812076
v 0.457709 1.102030 -0.262238
v 1.005337 0.357343 0.039725
v 1.018887 1.283450 0.490451
v 0.889571 1.411264 -0.076355
v 0.931662 0.718234 -0.051751
v 0.294718 0.833510 -1.083287
v -0.112619 0.918226 -0.205239
v 0.572458 1.504022 -0.570136
v 1.994815 0.229294 1.449033
v 2.014101 0.410090 0.882227
v 1.498552 -0.054961 0.906831
v 1.191500 0.514868 -0.124705
v 1.003730 0.886139 0.753343
v 1.888877 0.715841 0.388446
v 1.379335 -1.138362 -1.044721
v 1.682690 -0.626523 -1.026699
v 1.067953 -0.483345 -0.736412
v 1.709373 0.452978 -0.294902
v 1.765862 -0.441949 0.079238
v 2.027423 -0.187946 -0.822263
v 1.624480 0.895854 -0.478588
v 1.788270 1.282689 -0.900321
v 1.133903 1.109764 -1.057066
v 1.214180 2.145627 -1.692358
v 1.070642 2.131564 -0.731491
v 1.859384 1.796062 -1.190795
v 2.499432 0.567014 1.683428
v 2.443794 -0.181206 0.854815
v 2.467390 0.981272 0.263035
v 3.108073 -0.329067 -1.498352
v 4.258495 0.159678 -0.169109
v 2.767832 -0.873758 0.042309
v 4.287464 -0.957865 1.236159
v 4.748908 -0.672937 0.258706
v 3.467064 -0.736996 0.024419
v 4.094255 0.537818 -1.767628
v 3.902343 1.229532 -0.090149
v 5.118173 -0.040697 -0.583143
v 1.964170 -2.839909 2.492404
v 2.521830 -2.835051 1.523630
v 1.662120 -1.858518 1.426667
v 3.121205 -1.213657 -0.211984
v 3.453648 -0.940832 1.561229
v 3.280649 -2.567986 0.750544
v 3.958514 -2.006843 -0.745261
v 4.835438 -2.289725 -1.378120
v 4.585052 -1.045341 -1.679670
v 6.738700 -1.170236 -2.438714
v 6.330711 -0.977646 -0.670752
v 5.892854 -2.412350 -1.712228
v 2.262100 -0.022072 0.228327
v 2.387317 0.563270 -0.322771
v 3.202769 0.498288 0.159530
v 3.767145 1.271743 -1.202134
v 3.520988 -0.033000 -1.171900
v 2.617531 0.928529 -1.010588
v 2.293178 -0.358739 -1.479729
v 3.055638 -0.253217 -1.743419
v 2.851184 0.534670 -1.254306
v 4.512184 0.642938 -1.238920
v 3.841308 -0.164708 -0.425596
v 3.867688 -0.250196 -1.751790
v 0.265907 0.811563 -1.174654
v 0.929214 0.937331 -1.628768
v 1.186416 1.169437 -0.744588
v 2.698015 0.943860 -1.404181
v 1.924348 -0.068016 -1.028140
v 1.643572 0.803956 -1.991271
v 3.249939 3.420562 -0.842722
v 3.111915 2.997932 -1.524152
v 3.270538 2.343620 -0.854441
v 2.492805 1.387250 -1.973086
v 1.840819 2.213334 -1.162925
v 2.717430 2.575082 -2.094313
v 2.856053 0.947041 -2.315474
v 3.291650 0.837221 -2.993860
v 3.917838 0.768316 -2.283269
v 4.792639 0.004065 -3.475545
v 3.811808 -0.597421 -2.812186
v 3.674442 0.461578 -3.603669
v 0.260471 -2.401702 -0.938652
v 0.454594 -1.693497 -0.588259
v 1.172446 -2.278789 -0.378688
v 1.934581 -0.824435 -0.105035
v 1.749203 -1.315453 -1.325034
v 0.786862 -0.960487 -0.479639
v 0.613401 -0.977923 -1.876766
v 1.404914 -0.809877 -1.791444
v 1.078872 -0.923735 -0.906836
v 2.703125 -1.142031 -0.615239
v 1.936330 -2.093764 -1.134940
v 2.204219 -0.921231 -1.700797
v -1.488935 -0.507781 -0.911540
v -0.761652 -0.143686 -0.888998
v -0.678550 -0.898987 -0.319425
v 0.935829 -0.607653 -0.601892
v 0.156165 -1.223721 -1.483055
v 0.011659 0.030047 -1.065947
v 1.259895 -0.252365 1.952059
v 1.266571 0.227448 1.294984
v 1.333353 -0.657324 0.956579
v 0.815195 0.111292 -0.426035
v -0.010012 -0.214442 0.562293
v 1.001289 0.643669 0.650088
v 1.254450 0.201075 -0.917926
v 1.809391 0.713089 -1.221069
v 2.300499 -0.053852 -0.951974
v 3.410265 0.611008 -1.999476
v 2.356016 -0.079151 -2.419118
v 2.312759 1.068547 -1.750007
vt 0.000000 0.000000
vt 1.000000 0.000000
vt 0.000000 1.000000
vt 0.000000 1.000000
vt 1.000000 0.000000
vt 1.000000 1.000000
vt 0.000000 0.000000
vt 1.000000 0.000000
vt 0.000000 1.000000
vt 0.000000 1.000000
vt 1.000000 0.000000
vt 1.000000 1.000000
vt 0.000000 0.000000
vt 1.000000 0.000000
vt 0.000000 1.000000
vt 0.000000 1.000000
vt 1.000000 0.000000
vt 1.000000 1.000000
vt 0.000000 0.000000
vt 1.000000 0.000000
vt 0.000000 1.000000
vt 0.000000 1.000000
vt 1.000000 0.000000
vt 1.000000 1.000000
vt 0.000000 0.000000
vt 1.000000 0.000000
vt 0.000000 1.000000
vt 0.000000 1.000000
vt 1.000000 0.000000
vt 1.000000 1.000000
vt 0.000000 0.000000
vt 1.000000 0.000000
vt 0.000000 1.000000
vt 0.000000 1.000000
vt 1.000000 0.000000
vt 1.000000 1.000000
vt 0.000000 0.000000
vt 1.000000 0.000000
vt 0.000000 1.000000
vt 0.000000 1.000000
vt 1.000000 0.000000
vt 1.000000 1.000000
vt 0.000000 0.000000
vt 1.000000 0.000000
vt 0.000000 1.000000
vt 0.000000 1.000000
vt 1.000000 0.000000
vt 1.000000 1.000000
vt 0.000000 0.000000
vt 1.000000 0.000000
vt 0.000000 1.000000
vt 0.000000 1.000000
vt 1.000000 0.000000
vt 1.000000 1.000000
vt 0.000000 0.000000
vt 1.000000 0.000000
vt 0.000000 1.000000
vt 0.000000 1.000000
vt 1.000000 0.000000
vt 1.000000 1.000000
vt 0.000000 0.000000
vt 1.000000 0.000000
vt 0.000000 1.000000
vt 0.000000 1.000000
vt 1.000000 0.000000
vt 1.000000 1.000000
vt 0.000000 0.000000
vt 1.000000 0.000000
vt 0.000000 1.000000
vt 0.000000 1.000000
vt 1.000000 0.000000
vt 1.000000 1.000000
vt 0.000000 0.000000
vt 1.000000 0.000000
vt 0.000000 1.000000
vt 0.000000 1.000000
vt 1.000000 0.000000
vt 1.000000 1.000000
vt 0.000000 0.000000
vt 1.000000 0.000000
vt 0.000000 1.000000
vt 0.000000 1.000000
vt 1.000000 0.000000
vt 1.000000 1.000000
vt 0.000000 0.000000
vt 1.000000 0.000000
vt 0.000000 1.000000
vt 0.000000 1.000000
vt 1.000000 0.000000
vt 1.000000 1.000000
vt 0.000000 0.000000
vt 1.000000 0.000000
vt 0.000000 1.000000
vt 0.000000 1.000000
vt 1.000000 0.000000
vt 1.000000 1.000000
vt 0.000000 0.000000
vt 1.000000 0.000000
vt 0.000000 1.000000
vt 0.000000 1.000000
vt 1.000000 0.000000
vt 1.000000 1.000000
vt 0.000000 0.000000
vt 1.000000 0.000000
vt 0.000000 1.000000
vt 0.000000 1.000000
vt 1.000000 0.000000
vt 1.000000 1.000000
vt 0.000000 0.000000
vt 1.000000 0.000000
vt 0.000000 1.000000
vt 0.000000 1.000000
vt 1.000000 0.000000
vt 1.000000 1.000000
vt 0.000000 0.000000
vt 1.000000 0.000000
vt 0.000000 1.000000
vt 0.000000 1.000000
vt 1.000000 0.000000
vt 1.000000 1.000000
vn -0.4345 -0.4004 0.8068
vn 0.1172 -0.9417 0.3155
vn 0.0351 0.9694 -0.2431
vn 0.8258 0.5073 -0.2465
vn -0.9761 -0.0518 0.2110
vn -0.7096 0.5894 -0.3861
vn -0.6492 0.7308 0.2110
vn 0.0183 0.9223 -0.3861
vn 0.3657 -0.2483 0.8970
vn 0.9263 0.1936 0.3233
vn -0.3346 0.7556 0.5631
vn 0.4279 0.9005 0.0771
vn 0.9987 -0.0373 -0.0334
vn 0.5451 -0.8210 -0.1699
vn -0.0919 0.9668 0.2384
vn 0.6605 0.7178 -0.2204
vn 0.6717 0.6300 0.3898
vn 0.9832 -0.0137 -0.1822
vn 0.6200 0.3004 0.7248
vn 0.8620 -0.4425 0.2471
vn 0.3305 -0.6835 -0.6509
vn -0.1669 0.0086 -0.9859
vn 0.3477 -0.4277 0.8343
vn 0.7945 -0.6048 0.0548
vn 0.2904 -0.9429 0.1630
vn 0.4504 -0.5926 -0.6678
vn -0.9773 -0.0210 0.2110
vn -0.7401 0.0717 -0.6687
vn -0.1673 -0.9845 0.0520
vn -0.1577 -0.6042 -0.7811
vn 0.4739 0.2827 -0.8339
vn 0.0125 0.9270 -0.3750
vn 0.2123 -0.9760 -0.0474
vn 0.7996 -0.3992 -0.4487
vn 0.3009 -0.5529 -0.7771
vn 0.5905 0.3152 -0.7429
vn -0.9971 -0.0558 -0.0509
vn -0.6107 0.7467 -0.2638
vn -0.1270 -0.3998 -0.9078
vn 0.0138 0.5040 -0.8636
usemtl None
s off
f 1/1/1 2/2/1 3/3/1
f 5/4/2 6/5/2 4/6/2
f 7/7/3 8/8/3 9/9/3
f 11/10/4 12/11/4 10/12/4
f 13/13/5 14/14/5 15/15/5
f 17/16/6 18/17/6 16/18/6
f 19/19/7 20/20/7 21/21/7
f 23/22/8 24/23/8 22/24/8
f 25/25/9 26/26/9 27/27/9
f 29/28/10 30/29/10 28/30/10
f 31/31/11 32/32/11 33/33/11
f 35/34/12 36/35/12 34/36/12
f 37/37/13 38/38/13 39/39/13
f 41/40/14 42/41/14 40/42/14
f 43/43/15 44/44/15 45/45/15
f 47/46/16 48/47/16 46/48/16
f 49/49/17 50/50/17 51/51/17
f 53/52/18 54/53/18 52/54/18
f 55/55/19 56/56/19 57/57/19
f 59/58/20 60/59/20 58/60/20
f 61/61/21 62/62/21 63/63/21
f 65/64/22 66/65/22 64/66/22
f 67/67/23 68/68/23 69/69/23
f 71/70/24 72/71/24 70/72/24
f 73/73/25 74/74/25 75/75/25
f 77/76/26 78/77/26 76/78/26
f 79/79/27 80/80/27 81/81/27
f 83/82/28 84/83/28 82/84/28
f 85/85/29 86/86/29 87/87/29
f 89/88/30 90/89/30 88/90/30
f 91/91/31 92/92/31 93/93/31
f 95/94/32 96/95/32 94/96/32
f 97/97/33 98/98/33 99/99/33
f 101/100/34 102/101/34 100/102/34
f 103/103/35 104/104/35 105/105/35
f 107/106/36 108/107/36 106/108/36
f 109/109/37 110/110/37 111/111/37
f 113/112/38 114/113/38 112/114/38
f 115/115/39 116/116/39 117/117/39
f 119/118/40 120/119/40 118/120/40
