# Blender v2.80 (sub 75) OBJ File: ''
# www.blender.org
mtllib fuel.mtl
o Cube_Cube.001
v -0.512743 -1.272036 0.136743
v -1.312104 0.910947 -0.037242
v 0.900977 0.703344 -1.285457
v 0.902424 0.703344 1.542970
v -0.511020 -1.274436 0.137590
vt 0.375000 0.000000
vt 0.625000 0.000000
vt 0.625000 0.250000
vt 0.375000 1.000000
vt 0.625000 0.750000
vt 0.625000 1.000000
vt 0.875000 0.500000
vt 0.875000 0.750000
vt 0.000000 0.000000
vt 0.000000 0.000000
vt 0.000000 0.000000
vt 0.000000 0.000000
vn -0.4935 -0.2472 -0.8339
vn -0.5836 -0.1501 0.7981
vn 0.0934 0.9956 -0.0000
vn -0.8124 -0.5831 0.0004
usemtl None
s off
f 1/1/1 2/2/1 3/3/1
f 1/4/2 4/5/2 2/6/2
f 4/5/3 3/7/3 2/8/3
f 1/9/4 3/10/4 5/11/4 4/12/4
